<svg width="24" height="24" viewBox="0 0 24 24" fill="none" xmlns="http://www.w3.org/2000/svg">
<path d="M12.0071 13.0255L7.10713 17.9255C6.9238 18.1089 6.69046 18.2005 6.40713 18.2005C6.1238 18.2005 5.89046 18.1089 5.70713 17.9255C5.5238 17.7422 5.43213 17.5089 5.43213 17.2255C5.43213 16.9422 5.5238 16.7089 5.70713 16.5255L10.6071 11.6255L5.70713 6.72554C5.5238 6.5422 5.43213 6.30887 5.43213 6.02554C5.43213 5.7422 5.5238 5.50887 5.70713 5.32554C5.89046 5.1422 6.1238 5.05054 6.40713 5.05054C6.69046 5.05054 6.9238 5.1422 7.10713 5.32554L12.0071 10.2255L16.9071 5.32554C17.0905 5.1422 17.3238 5.05054 17.6071 5.05054C17.8905 5.05054 18.1238 5.1422 18.3071 5.32554C18.4905 5.50887 18.5821 5.7422 18.5821 6.02554C18.5821 6.30887 18.4905 6.5422 18.3071 6.72554L13.4071 11.6255L18.3071 16.5255C18.4905 16.7089 18.5821 16.9422 18.5821 17.2255C18.5821 17.5089 18.4905 17.7422 18.3071 17.9255C18.1238 18.1089 17.8905 18.2005 17.6071 18.2005C17.3238 18.2005 17.0905 18.1089 16.9071 17.9255L12.0071 13.0255Z" fill="currentColor"/>
</svg>
