<svg width="25" height="30" viewBox="0 0 25 30" fill="none" xmlns="http://www.w3.org/2000/svg">
<g clip-path="url(#clip0_12_3024)">
<path d="M23.638 5.63913C23.638 8.1975 18.7412 10.2715 12.7005 10.2715C6.65993 10.2715 1.76305 8.1975 1.76305 5.63913M23.638 5.63913V24.1686C23.638 26.7269 18.7412 28.8009 12.7005 28.8009C6.65993 28.8009 1.76305 26.7269 1.76305 24.1686V5.63913M23.638 5.63913C23.638 3.54066 20.3435 1.76809 15.8255 1.19861M1.76305 5.63913C1.76305 3.54066 5.05759 1.76809 9.57554 1.19861M23.638 11.8156C23.638 14.374 18.7412 16.448 12.7005 16.448C6.65993 16.448 1.76305 14.374 1.76305 11.8156M23.638 17.9921C23.638 20.5505 18.7412 22.6244 12.7005 22.6244C6.65993 22.6244 1.76305 20.5505 1.76305 17.9921" stroke="#083731" stroke-width="2.31562" stroke-linecap="round" stroke-linejoin="round"/>
</g>
<defs>
<clipPath id="clip0_12_3024">
<rect width="25" height="30" fill="white"/>
</clipPath>
</defs>
</svg>
