<svg width="30" height="30" viewBox="0 0 30 30" fill="none" xmlns="http://www.w3.org/2000/svg">
<g clip-path="url(#clip0_12_3007)">
<path fill-rule="evenodd" clip-rule="evenodd" d="M24.1677 15.6583C23.3473 14.7806 21.9554 14.7806 21.1351 15.6583C20.7259 16.0961 20.1475 16.3356 19.5487 16.3154C18.3479 16.2748 17.3637 17.2591 17.4043 18.4597C17.4245 19.0586 17.1849 19.6371 16.7472 20.0461C15.8694 20.8665 15.8694 22.2585 16.7472 23.0788C17.1849 23.4879 17.4245 24.0663 17.4043 24.6652C17.3637 25.8659 18.3479 26.8501 19.5487 26.8096C20.1475 26.7893 20.7259 27.0289 21.1351 27.4666C21.9554 28.3444 23.3473 28.3444 24.1677 27.4666C24.5768 27.0289 25.1553 26.7893 25.7541 26.8096C26.9548 26.8501 27.939 25.8659 27.8985 24.6652C27.8783 24.0663 28.1178 23.4879 28.5556 23.0788C29.4333 22.2585 29.4333 20.8665 28.5556 20.0461C28.1178 19.6371 27.8783 19.0586 27.8985 18.4597C27.939 17.2591 26.9548 16.2748 25.7541 16.3154C25.1553 16.3356 24.5768 16.0961 24.1677 15.6583ZM25.7306 20.6874C26.1533 20.256 26.1463 19.5635 25.7149 19.1406C25.2835 18.7179 24.591 18.7249 24.1683 19.1563L21.7961 21.5768L21.1931 20.859C20.8046 20.3965 20.1147 20.3365 19.6522 20.725C19.1896 21.1135 19.1296 21.8035 19.5182 22.266L20.8963 23.9066C21.0947 24.1428 21.3836 24.2842 21.6918 24.2961C22.0001 24.3079 22.299 24.189 22.5149 23.9686L25.7306 20.6874Z" fill="#083731"/>
<path fill-rule="evenodd" clip-rule="evenodd" d="M13.5373 0.78125C10.517 0.78125 8.06852 3.22969 8.06852 6.25C8.06852 9.27033 10.517 11.7188 13.5373 11.7188C15.1571 11.7188 16.6135 11.0132 17.6132 9.89608C18.0161 9.446 17.9778 8.7545 17.5277 8.35167C17.0776 7.94882 16.3861 7.98712 15.9832 8.43725C15.3809 9.11025 14.509 9.53125 13.5373 9.53125C11.7251 9.53125 10.2561 8.06218 10.2561 6.25C10.2561 4.43782 11.7251 2.96875 13.5373 2.96875C14.509 2.96875 15.3809 3.38973 15.9832 4.06277C16.3861 4.51287 17.0776 4.55118 17.5277 4.14832C17.9778 3.74547 18.0161 3.054 17.6132 2.6039C16.6135 1.48683 15.1571 0.78125 13.5373 0.78125ZM11.364 13.9062C6.93246 13.9062 2.91656 16.5161 1.11672 20.5657C-0.691905 24.6351 2.28688 29.2188 6.74011 29.2188H18.4153C17.415 28.6637 16.5348 27.9182 15.8238 27.0312H6.74011C3.86989 27.0312 1.94997 24.077 3.11569 21.4541C4.56442 18.1945 7.79693 16.0938 11.364 16.0938H15.7106C15.7481 16.0938 15.7857 16.094 15.8233 16.0944C16.4371 15.3285 17.1772 14.668 18.0119 14.1445C17.2644 13.9878 16.494 13.9062 15.7106 13.9062H11.364Z" fill="#083731"/>
</g>
<defs>
<clipPath id="clip0_12_3007">
<rect width="30" height="30" fill="white"/>
</clipPath>
</defs>
</svg>
