<svg width="29" height="30" viewBox="0 0 29 30" fill="none" xmlns="http://www.w3.org/2000/svg">
<g clip-path="url(#clip0_12_3015)">
<g clip-path="url(#clip1_12_3015)">
<path d="M1.58594 16.4583V17.625C1.58594 21.9997 1.58594 24.187 2.69364 25.7204C3.05138 26.2157 3.48439 26.6512 3.97679 27.0109C5.5014 28.125 7.67625 28.125 12.026 28.125H22.0672C25.1703 28.125 27.686 25.5949 27.686 22.474V22.2917M1.58594 16.4583C1.58594 13.7403 1.58594 12.3813 2.02744 11.3093C2.6161 9.88 3.74521 8.74442 5.16638 8.15237C6.23225 7.70833 7.58348 7.70833 10.286 7.70833H19.0005C21.6893 7.70833 23.0337 7.70833 24.0949 8.148C25.5246 8.74025 26.6599 9.88208 27.2488 11.3199C27.686 12.3873 27.686 13.7394 27.686 16.4437V16.4583H1.58594ZM11.736 12.0833H17.536M8.83597 7.70833C8.83597 4.48668 11.4327 1.875 14.636 1.875C17.8392 1.875 20.436 4.48668 20.436 7.70833" stroke="#083731" stroke-width="2.187" stroke-linecap="round" stroke-linejoin="round"/>
</g>
</g>
<defs>
<clipPath id="clip0_12_3015">
<rect width="29" height="30" fill="white"/>
</clipPath>
<clipPath id="clip1_12_3015">
<rect width="29" height="30" fill="white"/>
</clipPath>
</defs>
</svg>
