<svg width="64" height="64" viewBox="0 0 64 64" fill="none" xmlns="http://www.w3.org/2000/svg">
<g clip-path="url(#clip0_662_29540)">
<mask id="mask0_662_29540" style="mask-type:luminance" maskUnits="userSpaceOnUse" x="0" y="0" width="64" height="64">
<path d="M0 3.8147e-06H64V64H0V3.8147e-06Z" fill="white"/>
</mask>
<g mask="url(#mask0_662_29540)">
<path d="M52.2501 46.2844L36.5875 43.4758L32.0551 48.8054C24.5687 45.4647 18.5399 39.4369 15.1974 31.9513L20.5251 27.4144L17.7155 11.7499H5.625C3.5625 11.7499 1.875 13.4374 1.875 15.4999V18.4492C1.875 42.5318 21.4681 62.1249 45.5509 62.1249H48.5001C50.5626 62.1249 52.2501 60.4374 52.2501 58.3749V46.2844Z" stroke="#98A2B3" stroke-width="3" stroke-miterlimit="10" stroke-linecap="round" stroke-linejoin="round"/>
<path d="M58.3749 1.87507H31.9998C29.9373 1.87507 28.2498 3.56257 28.2498 5.62507V24.4999C28.2498 26.5624 29.9373 28.2499 31.9998 28.2499H41.4374L45.1874 33.2498L48.9374 28.2499H58.3749C60.4374 28.2499 62.1249 26.5624 62.1249 24.4999V5.62507C62.1249 3.56257 60.4374 1.87507 58.3749 1.87507Z" fill="#009640" stroke="#009640" stroke-width="3" stroke-miterlimit="10" stroke-linecap="round" stroke-linejoin="round"/>
</g>
<circle cx="37" cy="16" r="2" fill="white"/>
<circle cx="45" cy="16" r="2" fill="white"/>
<circle cx="53" cy="16" r="2" fill="white"/>
</g>
<defs>
<clipPath id="clip0_662_29540">
<rect width="64" height="64" fill="white"/>
</clipPath>
</defs>
</svg>
