<svg width="24" height="24" viewBox="0 0 24 24" fill="none" xmlns="http://www.w3.org/2000/svg">
<path d="M16.852 10.582C17.7776 10.9647 18.7617 11.1865 19.762 11.238L19.838 9.74C19.0086 9.69757 18.1926 9.51393 17.425 9.197L16.852 10.582ZM16.085 10.222C16.3343 10.3547 16.59 10.4747 16.852 10.582L17.425 9.197C17.2088 9.10766 16.9972 9.00753 16.791 8.897L16.085 10.222ZM15.05 9.922V15.5H16.55V9.924L15.05 9.922ZM15.412 19.249C16.1538 18.139 16.5498 16.834 16.55 15.499H15.05C15.05 16.5375 14.742 17.5536 14.165 18.417L15.412 19.249ZM12.383 21.735C13.6166 21.2242 14.6711 20.3591 15.413 19.249L14.165 18.417C13.588 19.2801 12.7682 19.9528 11.809 20.35L12.383 21.735ZM8.48297 22.119C9.79234 22.3795 11.1496 22.2459 12.383 21.735L11.809 20.35C10.8499 20.7477 9.7944 20.8511 8.77597 20.649L8.48297 22.119ZM5.02697 20.272C5.97099 21.2159 7.17368 21.8586 8.48297 22.119L8.77597 20.649C7.75747 20.4461 6.82202 19.9456 6.08797 19.211L5.02697 20.272ZM3.17997 16.817C3.44035 18.1263 4.08311 19.329 5.02697 20.273L6.08697 19.213C5.35289 18.4784 4.85315 17.5416 4.65097 16.523L3.17997 16.817ZM3.56397 12.917C3.05312 14.1504 2.91948 15.5076 3.17997 16.817L4.64997 16.524C4.44786 15.5056 4.55226 14.4501 4.94997 13.491L3.56397 12.917ZM6.04998 9.887C4.93987 10.6289 4.07473 11.6834 3.56397 12.917L4.94997 13.491C5.34719 12.5318 6.01987 11.7119 6.88297 11.135L6.04998 9.887ZM9.34998 8.765C8.17062 8.84395 7.03268 9.23019 6.04998 9.887L6.88297 11.135C7.64744 10.6243 8.53263 10.3232 9.44997 10.262L9.34998 8.765ZM10.55 12.7V9.9H9.04997V12.7H10.55ZM8.88298 14.128C9.07688 13.9985 9.29603 13.9116 9.52597 13.873L9.27698 12.393C8.83809 12.4671 8.4199 12.6325 8.04997 12.88L8.88298 14.128ZM8.27597 14.868C8.40075 14.5668 8.61197 14.3093 8.88298 14.128L8.04997 12.88C7.53213 13.226 7.12846 13.7187 6.88997 14.294L8.27597 14.868ZM8.18197 15.822C8.11841 15.502 8.15112 15.1704 8.27597 14.869L6.88997 14.294C6.65131 14.8695 6.58866 15.5029 6.70998 16.114L8.18197 15.822ZM8.63298 16.667C8.4024 16.4361 8.24545 16.1421 8.18197 15.822L6.71097 16.115C6.83265 16.7257 7.13262 17.2867 7.57297 17.727L8.63298 16.667ZM9.47797 17.118C9.15791 17.0545 8.86385 16.8976 8.63298 16.667L7.57297 17.727C8.01297 18.167 8.57398 18.467 9.18498 18.59L9.47797 17.118ZM10.431 17.024C10.1296 17.1489 9.79795 17.1816 9.47797 17.118L9.18498 18.59C9.79609 18.7113 10.4295 18.6477 11.005 18.409L10.431 17.024ZM11.171 16.417C10.9897 16.688 10.7322 16.8992 10.431 17.024L11.005 18.409C11.5807 18.1707 12.0727 17.767 12.419 17.249L11.171 16.417ZM11.45 15.5C11.45 15.826 11.353 16.145 11.172 16.417L12.419 17.249C12.7651 16.731 12.9499 16.123 12.95 15.5H11.45ZM12.95 15.5V2.9H11.45V15.5H12.95ZM12.6 3.25H15.4V1.75H12.6V3.25ZM16.828 3.897C16.6878 3.55672 16.5991 3.19744 16.565 2.831L15.071 2.968C15.118 3.484 15.243 3.99 15.442 4.471L16.828 3.897ZM17.619 5.081C17.2811 4.74127 17.0125 4.33916 16.828 3.897L15.442 4.471C15.7019 5.0949 16.081 5.66215 16.558 6.141L17.619 5.081ZM18.803 5.872C18.3608 5.68748 17.9587 5.41884 17.619 5.081L16.558 6.141C17.0367 6.61836 17.605 6.99777 18.229 7.258L18.803 5.872ZM19.869 6.135C19.5025 6.10084 19.1433 6.01219 18.803 5.872L18.229 7.258C18.709 7.457 19.216 7.582 19.732 7.628L19.869 6.135ZM20.95 10.1V7.3H19.45V10.1H20.95ZM19.732 7.629C19.6523 7.61952 19.579 7.58043 19.5268 7.51949C19.4746 7.45855 19.4472 7.38021 19.45 7.3H20.95C20.95 6.65 20.432 6.186 19.869 6.135L19.732 7.629ZM19.762 11.239C19.9158 11.2462 20.0694 11.222 20.2136 11.168C20.3577 11.1139 20.4893 11.0311 20.6005 10.9245C20.7116 10.818 20.7999 10.6899 20.86 10.5482C20.9201 10.4064 20.9507 10.254 20.95 10.1H19.45C19.45 9.917 19.605 9.73 19.838 9.74L19.762 11.239ZM9.04997 12.7C9.04997 12.598 9.09397 12.517 9.13897 12.47C9.17558 12.4305 9.22399 12.4038 9.27698 12.394L9.52698 13.873C10.028 13.788 10.55 13.36 10.55 12.7H9.04997ZM16.79 8.898C16.061 8.51 15.05 8.982 15.05 9.924H16.55C16.55 10.067 16.464 10.174 16.38 10.221C16.3348 10.2457 16.2841 10.2587 16.2326 10.2588C16.1811 10.259 16.1304 10.2464 16.085 10.222L16.79 8.898ZM12.95 2.9C12.95 2.99283 12.9131 3.08185 12.8475 3.14749C12.7818 3.21313 12.6928 3.25 12.6 3.25V1.75C12.295 1.75 12.0025 1.87116 11.7868 2.08683C11.5711 2.30249 11.45 2.595 11.45 2.9H12.95ZM15.4 3.25C15.3198 3.25282 15.2414 3.22539 15.1805 3.17316C15.1195 3.12093 15.0805 3.0477 15.071 2.968L16.565 2.831C16.514 2.268 16.051 1.75 15.4 1.75V3.25ZM9.44997 10.262C9.39959 10.2661 9.3489 10.2598 9.30103 10.2436C9.25316 10.2274 9.20912 10.2015 9.17164 10.1676C9.13416 10.1336 9.10402 10.0924 9.0831 10.0464C9.06217 10.0004 9.0509 9.95054 9.04997 9.9H10.55C10.55 9.28 10.037 8.72 9.34998 8.765L9.44997 10.262Z" fill="#666666"/>
</svg>
